# xmcd
#
# Track frame offsets:
#	150
#	15760
#	31855
#	44399
#	63000
#	80463
#	97324
#	115653
#	130150
#	146184
#
# Disc length: 2147 seconds
#
# Revision: 1
# Processed by: cddbd v1.5.2PL0 Copyright (c) Steve Scherf et al.
# Submitted via: EasyCDDAExtractor 7.0.3.1
#
DISCID=7a08610a
DTITLE=Bobby Carlson - It Wouldn't Hurt To Ask
DYEAR=1900
DGENRE=Country
TTITLE0=She's Got My Heart
TTITLE1=Hurt By The Best
TTITLE2=Carry Us Away
TTITLE3=As Long As Forever Takes
TTITLE4=Paper Plates and Dixie Cups
TTITLE5=She Didn't Leave Blue
TTITLE6=It Wouldn't Hurt To Ask
TTITLE7=I Wanna Be the String
TTITLE8=This Side Of the Moon
TTITLE9=Not A Brick Out Of Place
EXTD=
EXTT0=
EXTT1=
EXTT2=
EXTT3=
EXTT4=
EXTT5=
EXTT6=
EXTT7=
EXTT8=
EXTT9=
PLAYORDER=
